{
	"asset":{
		"generator":"Khronos glTF Blender I/O v4.2.57",
		"version":"2.0"
	},
	"scene":0,
	"scenes":[
		{
			"name":"Scene",
			"nodes":[
				0,
				1
			]
		}
	],
	"nodes":[
		{
			"mesh":0,
			"name":"Suzanne.001"
		},
		{
			"mesh":1,
			"name":"Suzanne"
		}
	],
	"materials":[
		{
			"doubleSided":true,
			"name":"Random_material.153",
			"pbrMetallicRoughness":{
				"baseColorFactor":[
					0.2114059180021286,
					0.5652365684509277,
					0.11931513994932175,
					1
				],
				"roughnessFactor":0.3918827772140503
			}
		},
		{
			"doubleSided":true,
			"name":"Random_material.154",
			"pbrMetallicRoughness":{
				"baseColorFactor":[
					0.8360021710395813,
					0.17007936537265778,
					0.6432256698608398,
					1
				],
				"roughnessFactor":0.07832373678684235
			}
		},
		{
			"doubleSided":true,
			"name":"Random_material.155",
			"pbrMetallicRoughness":{
				"baseColorFactor":[
					0.46767517924308777,
					0.2688336968421936,
					0.5787587761878967,
					1
				],
				"roughnessFactor":0.07850901782512665
			}
		},
		{
			"doubleSided":true,
			"name":"Random_material.156",
			"pbrMetallicRoughness":{
				"baseColorFactor":[
					0.4940381944179535,
					0.4061170518398285,
					0.5438901782035828,
					1
				],
				"roughnessFactor":0.7070198059082031
			}
		},
		{
			"doubleSided":true,
			"name":"Random_material.1250",
			"pbrMetallicRoughness":{
				"baseColorFactor":[
					0.9630329012870789,
					0.28911685943603516,
					0.46109673380851746,
					1
				]
			}
		},
		{
			"doubleSided":true,
			"name":"Random_material.1251",
			"pbrMetallicRoughness":{
				"baseColorFactor":[
					0.9060233235359192,
					0.4237925410270691,
					0.6981377601623535,
					1
				],
				"metallicFactor":0
			}
		},
		{
			"doubleSided":true,
			"name":"Random_material.1252",
			"pbrMetallicRoughness":{
				"baseColorFactor":[
					0.7123774886131287,
					0.2576639652252197,
					0.8072200417518616,
					1
				]
			}
		},
		{
			"doubleSided":true,
			"name":"Random_material.1253",
			"pbrMetallicRoughness":{
				"baseColorFactor":[
					0.9766537547111511,
					0.6436989307403564,
					0.4497672915458679,
					1
				],
				"metallicFactor":0
			}
		},
		{
			"doubleSided":true,
			"name":"Random_material.1254",
			"pbrMetallicRoughness":{
				"baseColorFactor":[
					0.596595048904419,
					0.16930188238620758,
					0.8469066619873047,
					1
				]
			}
		}
	],
	"meshes":[
		{
			"name":"Suzanne.021",
			"primitives":[
				{
					"attributes":{
						"POSITION":0,
						"NORMAL":1,
						"TEXCOORD_0":2
					},
					"indices":3,
					"material":0
				},
				{
					"attributes":{
						"POSITION":4,
						"NORMAL":5,
						"TEXCOORD_0":6
					},
					"indices":7,
					"material":1
				},
				{
					"attributes":{
						"POSITION":8,
						"NORMAL":9,
						"TEXCOORD_0":10
					},
					"indices":11,
					"material":2
				},
				{
					"attributes":{
						"POSITION":12,
						"NORMAL":13,
						"TEXCOORD_0":14
					},
					"indices":15,
					"material":3
				}
			]
		},
		{
			"name":"Suzanne.047",
			"primitives":[
				{
					"attributes":{
						"POSITION":16,
						"NORMAL":17,
						"TEXCOORD_0":18
					},
					"indices":19,
					"material":4
				},
				{
					"attributes":{
						"POSITION":20,
						"NORMAL":21,
						"TEXCOORD_0":22
					},
					"indices":23,
					"material":5
				},
				{
					"attributes":{
						"POSITION":24,
						"NORMAL":25,
						"TEXCOORD_0":26
					},
					"indices":27,
					"material":6
				},
				{
					"attributes":{
						"POSITION":28,
						"NORMAL":29,
						"TEXCOORD_0":30
					},
					"indices":31,
					"material":7
				},
				{
					"attributes":{
						"POSITION":32,
						"NORMAL":33,
						"TEXCOORD_0":34
					},
					"indices":35,
					"material":8
				}
			]
		}
	],
	"accessors":[
		{
			"bufferView":0,
			"componentType":5126,
			"count":473,
			"max":[
				1.3671875,
				0.984375,
				0.8515625
			],
			"min":[
				-1.3515625,
				-0.9453125,
				-0.703125
			],
			"type":"VEC3"
		},
		{
			"bufferView":1,
			"componentType":5126,
			"count":473,
			"type":"VEC3"
		},
		{
			"bufferView":2,
			"componentType":5126,
			"count":473,
			"type":"VEC2"
		},
		{
			"bufferView":3,
			"componentType":5123,
			"count":693,
			"type":"SCALAR"
		},
		{
			"bufferView":4,
			"componentType":5126,
			"count":541,
			"max":[
				1.265625,
				0.984375,
				0.8515625
			],
			"min":[
				-1.3671875,
				-0.984375,
				-0.8515625
			],
			"type":"VEC3"
		},
		{
			"bufferView":5,
			"componentType":5126,
			"count":541,
			"type":"VEC3"
		},
		{
			"bufferView":6,
			"componentType":5126,
			"count":541,
			"type":"VEC2"
		},
		{
			"bufferView":7,
			"componentType":5123,
			"count":795,
			"type":"SCALAR"
		},
		{
			"bufferView":8,
			"componentType":5126,
			"count":509,
			"max":[
				1.3671875,
				0.984375,
				0.8515625
			],
			"min":[
				-1.3125,
				-0.9765625,
				-0.8515625
			],
			"type":"VEC3"
		},
		{
			"bufferView":9,
			"componentType":5126,
			"count":509,
			"type":"VEC3"
		},
		{
			"bufferView":10,
			"componentType":5126,
			"count":509,
			"type":"VEC2"
		},
		{
			"bufferView":11,
			"componentType":5123,
			"count":753,
			"type":"SCALAR"
		},
		{
			"bufferView":12,
			"componentType":5126,
			"count":445,
			"max":[
				1.3515625,
				0.9296875,
				0.8515625
			],
			"min":[
				-1.265625,
				-0.984375,
				-0.8515625
			],
			"type":"VEC3"
		},
		{
			"bufferView":13,
			"componentType":5126,
			"count":445,
			"type":"VEC3"
		},
		{
			"bufferView":14,
			"componentType":5126,
			"count":445,
			"type":"VEC2"
		},
		{
			"bufferView":15,
			"componentType":5123,
			"count":663,
			"type":"SCALAR"
		},
		{
			"bufferView":16,
			"componentType":5126,
			"count":358,
			"max":[
				1.265625,
				0.9296875,
				0.8515625
			],
			"min":[
				-1.3125,
				-0.984375,
				-0.828125
			],
			"type":"VEC3"
		},
		{
			"bufferView":17,
			"componentType":5126,
			"count":358,
			"type":"VEC3"
		},
		{
			"bufferView":18,
			"componentType":5126,
			"count":358,
			"type":"VEC2"
		},
		{
			"bufferView":19,
			"componentType":5123,
			"count":522,
			"type":"SCALAR"
		},
		{
			"bufferView":20,
			"componentType":5126,
			"count":380,
			"max":[
				1.2109375,
				0.984375,
				0.8515625
			],
			"min":[
				-1.3671875,
				-0.984375,
				-0.703125
			],
			"type":"VEC3"
		},
		{
			"bufferView":21,
			"componentType":5126,
			"count":380,
			"type":"VEC3"
		},
		{
			"bufferView":22,
			"componentType":5126,
			"count":380,
			"type":"VEC2"
		},
		{
			"bufferView":23,
			"componentType":5123,
			"count":564,
			"type":"SCALAR"
		},
		{
			"bufferView":24,
			"componentType":5126,
			"count":399,
			"max":[
				1.3671875,
				0.984375,
				0.8515625
			],
			"min":[
				-1.3671875,
				-0.9765625,
				-0.8515625
			],
			"type":"VEC3"
		},
		{
			"bufferView":25,
			"componentType":5126,
			"count":399,
			"type":"VEC3"
		},
		{
			"bufferView":26,
			"componentType":5126,
			"count":399,
			"type":"VEC2"
		},
		{
			"bufferView":27,
			"componentType":5123,
			"count":591,
			"type":"SCALAR"
		},
		{
			"bufferView":28,
			"componentType":5126,
			"count":437,
			"max":[
				1.3515625,
				0.984375,
				0.8515625
			],
			"min":[
				-1.3671875,
				-0.984375,
				-0.828125
			],
			"type":"VEC3"
		},
		{
			"bufferView":29,
			"componentType":5126,
			"count":437,
			"type":"VEC3"
		},
		{
			"bufferView":30,
			"componentType":5126,
			"count":437,
			"type":"VEC2"
		},
		{
			"bufferView":31,
			"componentType":5123,
			"count":645,
			"type":"SCALAR"
		},
		{
			"bufferView":32,
			"componentType":5126,
			"count":394,
			"max":[
				1.3515625,
				0.984375,
				0.8359375
			],
			"min":[
				-1.265625,
				-0.96875,
				-0.8515625
			],
			"type":"VEC3"
		},
		{
			"bufferView":33,
			"componentType":5126,
			"count":394,
			"type":"VEC3"
		},
		{
			"bufferView":34,
			"componentType":5126,
			"count":394,
			"type":"VEC2"
		},
		{
			"bufferView":35,
			"componentType":5123,
			"count":582,
			"type":"SCALAR"
		}
	],
	"bufferViews":[
		{
			"buffer":0,
			"byteLength":5676,
			"byteOffset":0,
			"target":34962
		},
		{
			"buffer":0,
			"byteLength":5676,
			"byteOffset":5676,
			"target":34962
		},
		{
			"buffer":0,
			"byteLength":3784,
			"byteOffset":11352,
			"target":34962
		},
		{
			"buffer":0,
			"byteLength":1386,
			"byteOffset":15136,
			"target":34963
		},
		{
			"buffer":0,
			"byteLength":6492,
			"byteOffset":16524,
			"target":34962
		},
		{
			"buffer":0,
			"byteLength":6492,
			"byteOffset":23016,
			"target":34962
		},
		{
			"buffer":0,
			"byteLength":4328,
			"byteOffset":29508,
			"target":34962
		},
		{
			"buffer":0,
			"byteLength":1590,
			"byteOffset":33836,
			"target":34963
		},
		{
			"buffer":0,
			"byteLength":6108,
			"byteOffset":35428,
			"target":34962
		},
		{
			"buffer":0,
			"byteLength":6108,
			"byteOffset":41536,
			"target":34962
		},
		{
			"buffer":0,
			"byteLength":4072,
			"byteOffset":47644,
			"target":34962
		},
		{
			"buffer":0,
			"byteLength":1506,
			"byteOffset":51716,
			"target":34963
		},
		{
			"buffer":0,
			"byteLength":5340,
			"byteOffset":53224,
			"target":34962
		},
		{
			"buffer":0,
			"byteLength":5340,
			"byteOffset":58564,
			"target":34962
		},
		{
			"buffer":0,
			"byteLength":3560,
			"byteOffset":63904,
			"target":34962
		},
		{
			"buffer":0,
			"byteLength":1326,
			"byteOffset":67464,
			"target":34963
		},
		{
			"buffer":0,
			"byteLength":4296,
			"byteOffset":68792,
			"target":34962
		},
		{
			"buffer":0,
			"byteLength":4296,
			"byteOffset":73088,
			"target":34962
		},
		{
			"buffer":0,
			"byteLength":2864,
			"byteOffset":77384,
			"target":34962
		},
		{
			"buffer":0,
			"byteLength":1044,
			"byteOffset":80248,
			"target":34963
		},
		{
			"buffer":0,
			"byteLength":4560,
			"byteOffset":81292,
			"target":34962
		},
		{
			"buffer":0,
			"byteLength":4560,
			"byteOffset":85852,
			"target":34962
		},
		{
			"buffer":0,
			"byteLength":3040,
			"byteOffset":90412,
			"target":34962
		},
		{
			"buffer":0,
			"byteLength":1128,
			"byteOffset":93452,
			"target":34963
		},
		{
			"buffer":0,
			"byteLength":4788,
			"byteOffset":94580,
			"target":34962
		},
		{
			"buffer":0,
			"byteLength":4788,
			"byteOffset":99368,
			"target":34962
		},
		{
			"buffer":0,
			"byteLength":3192,
			"byteOffset":104156,
			"target":34962
		},
		{
			"buffer":0,
			"byteLength":1182,
			"byteOffset":107348,
			"target":34963
		},
		{
			"buffer":0,
			"byteLength":5244,
			"byteOffset":108532,
			"target":34962
		},
		{
			"buffer":0,
			"byteLength":5244,
			"byteOffset":113776,
			"target":34962
		},
		{
			"buffer":0,
			"byteLength":3496,
			"byteOffset":119020,
			"target":34962
		},
		{
			"buffer":0,
			"byteLength":1290,
			"byteOffset":122516,
			"target":34963
		},
		{
			"buffer":0,
			"byteLength":4728,
			"byteOffset":123808,
			"target":34962
		},
		{
			"buffer":0,
			"byteLength":4728,
			"byteOffset":128536,
			"target":34962
		},
		{
			"buffer":0,
			"byteLength":3152,
			"byteOffset":133264,
			"target":34962
		},
		{
			"buffer":0,
			"byteLength":1164,
			"byteOffset":136416,
			"target":34963
		}
	],
	"buffers":[
		{
			"byteLength":137580,
			"uri":"Generator.bin"
		}
	]
}
