<?xml version="1.0" encoding="UTF-8"?>
<svg xmlns="http://www.w3.org/2000/svg" xmlns:xlink="http://www.w3.org/1999/xlink" width="300px" height="300px" viewBox="0 0 300 300" version="1.1">
<defs>
<clipPath id="clip1">
  <path d="M 0 0 L 299.914062 0 L 299.914062 299.914062 L 0 299.914062 Z M 0 0 "/>
</clipPath>
<clipPath id="clip2">
  <path d="M 66.851562 63.929688 L 233.0625 63.929688 L 233.0625 235.988281 L 66.851562 235.988281 Z M 66.851562 63.929688 "/>
</clipPath>
</defs>
<g id="surface1">
<g clip-path="url(#clip1)" clip-rule="nonzero">
<path style="fill-rule:nonzero;fill:rgb(1.176471%,1.176471%,1.176471%);fill-opacity:1;stroke-width:1;stroke-linecap:butt;stroke-linejoin:miter;stroke:rgb(100%,100%,100%);stroke-opacity:1;stroke-miterlimit:4;" d="M -0.000000000000034671 166.952161 C -0.000000000000034671 74.745547 74.745547 -0.000000000000006134 166.952161 -0.000000000000006134 C 259.158776 -0.000000000000006134 333.904323 74.745547 333.904323 166.952161 C 333.904323 259.158776 259.158776 333.904323 166.952161 333.904323 C 74.745547 333.904323 -0.000000000000034671 259.158776 -0.000000000000034671 166.952161 Z M 166.952161 316.63026 C 249.617161 316.63026 316.63026 249.617161 316.63026 166.952161 C 316.63026 84.287161 249.617161 17.274062 166.952161 17.274062 C 84.287161 17.274062 17.274062 84.287161 17.274062 166.952161 C 17.274062 249.617161 84.287161 316.63026 166.952161 316.63026 Z M 166.952161 316.63026 " transform="matrix(0.898204,0,0,0.898204,0.000000000000031142,0.000000000000005509)"/>
</g>
<path style=" stroke:none;fill-rule:nonzero;fill:rgb(1.176471%,1.176471%,1.176471%);fill-opacity:1;" d="M 293.914062 149.957031 C 293.914062 70.449219 229.464844 6 149.957031 6 C 70.449219 6 6 70.449219 6 149.957031 C 6 229.464844 70.449219 293.914062 149.957031 293.914062 C 229.464844 293.914062 293.914062 229.464844 293.914062 149.957031 Z M 293.914062 149.957031 "/>
<g clip-path="url(#clip2)" clip-rule="nonzero">
<path style=" stroke:none;fill-rule:nonzero;fill:rgb(97.647059%,97.647059%,97.647059%);fill-opacity:1;" d="M 153.367188 231.355469 L 170.671875 231.355469 L 152.882812 178.714844 L 104.628906 178.714844 L 85.863281 231.355469 L 104.140625 231.355469 L 104.140625 235.988281 L 66.851562 235.988281 L 66.851562 231.355469 L 78.308594 231.355469 L 140.453125 63.929688 L 160.4375 63.929688 L 221.851562 231.355469 L 233.0625 231.355469 L 233.0625 235.988281 L 153.367188 235.988281 Z M 150.933594 173.351562 L 129.730469 109.5 L 106.820312 173.351562 Z M 150.933594 173.351562 "/>
</g>
</g>
</svg>
