<svg xmlns="http://www.w3.org/2000/svg" version="1.1" xmlns:xlink="http://www.w3.org/1999/xlink" xmlns:svgjs="http://svgjs.dev/svgjs" width="2000" height="2000" viewBox="0 0 2000 2000"><g transform="matrix(1,0,0,1,-0.28443113772425477,-0.28443113772459583)"><svg viewBox="0 0 334 334" data-background-color="#f9f9f9" preserveAspectRatio="xMidYMid meet" height="2000" width="2000" xmlns="http://www.w3.org/2000/svg" xmlns:xlink="http://www.w3.org/1999/xlink"><g id="tight-bounds" transform="matrix(1,0,0,1,0.04749999999998522,0.04750000000001364)"><svg viewBox="0 0 333.90454557049503 333.90454557049503" height="333.90454557049503" width="333.90454557049503"><g><svg></svg></g><g><svg viewBox="0 0 333.90454557049503 333.90454557049503" height="333.90454557049503" width="333.90454557049503"><g><path d="M0 166.952c0-92.205 74.747-166.952 166.952-166.952 92.205 0 166.952 74.747 166.953 166.952 0 92.205-74.747 166.952-166.953 166.953-92.205 0-166.952-74.747-166.952-166.953zM166.952 316.63c82.665 0 149.677-67.013 149.678-149.678 0-82.665-67.013-149.677-149.678-149.677-82.665 0-149.677 67.013-149.677 149.677 0 82.665 67.013 149.677 149.677 149.678z" data-fill-palette-color="tertiary" fill="#915eff" stroke="transparent"></path><ellipse rx="160.27418187383762" ry="160.27418187383762" cx="166.95227278524752" cy="166.95227278524752" fill="#915eff" stroke="transparent" stroke-width="0" fill-opacity="1" data-fill-palette-color="tertiary"></ellipse></g><g transform="matrix(1,0,0,1,74.4290030140569,71.17305217166896)"><svg viewBox="0 0 185.04653954238123 191.55844122715712" height="191.55844122715712" width="185.04653954238123"><g><svg viewBox="0 0 185.04653954238123 191.55844122715712" height="191.55844122715712" width="185.04653954238123"><g><svg viewBox="0 0 185.04653954238123 191.55844122715712" height="191.55844122715712" width="185.04653954238123"><g><svg viewBox="0 0 185.04653954238123 191.55844122715712" height="191.55844122715712" width="185.04653954238123"><g id="textblocktransform"><svg viewBox="0 0 185.04653954238123 191.55844122715712" height="191.55844122715712" width="185.04653954238123" id="textblock"><g><svg viewBox="0 0 185.04653954238123 191.55844122715712" height="191.55844122715712" width="185.04653954238123"><g transform="matrix(1,0,0,1,0,0)"><svg width="185.04653954238123" viewBox="0.3 -35.3 34.1 35.3" height="191.55844122715712" data-palette-color="#f9f9f9"><path d="M18.05-0.95L21.6-0.95 17.95-11.75 8.05-11.75 4.2-0.95 7.95-0.95 7.95 0 0.3 0 0.3-0.95 2.65-0.95 15.4-35.3 19.5-35.3 32.1-0.95 34.4-0.95 34.4 0 18.05 0 18.05-0.95ZM17.55-12.85L13.2-25.95 8.5-12.85 17.55-12.85Z" opacity="1" transform="matrix(1,0,0,1,0,0)" fill="#f9f9f9" class="wordmark-text-0" data-fill-palette-color="quaternary" id="text-0"></path></svg></g></svg></g></svg></g></svg></g><g></g></svg></g></svg></g></svg></g></svg></g><defs></defs></svg><rect width="333.90454557049503" height="333.90454557049503" fill="none" stroke="none" visibility="hidden"></rect></g></svg></g></svg>